<svg version="1.1" id="圖層_1" xmlns="http://www.w3.org/2000/svg" x="0" y="0" viewBox="0 0 243 243" xml:space="preserve"><style>.st0{fill:#fffffb}</style><path class="st0" d="M81.9 232.4h-9c-2.6-.6-5.2-1.4-7.9-1.8-29.1-3.8-47.6-21-53.4-50-1.1-5.4-1.8-10.8-2.7-16.2v-17c.3-1 1-2 1-3 .1-16.3.1-32.6 0-48.9 0-1-.6-2-1-3v-17c.6-3.5 1.4-6.9 1.8-10.4C14 33.5 35 12.5 66.5 9.2c4.2-.4 8.3-1.2 12.4-1.8h15c1 .3 2 1 3 1 16.3.1 32.6.1 48.9 0 1 0 2-.6 3-1h15c4.3.6 8.6 1.4 12.9 1.8 28.6 2.9 48.3 20.6 54.4 48.9 1 4.7 1.8 9.5 2.7 14.2v28c-.3.4-.8.8-.8 1.2v37.6c0 .4.5.8.8 1.2v10c-.3 1.7-.6 3.4-.9 5v3c.3 2 .6 4 .8 6v5c-.6 2.6-1.5 5.2-1.8 7.9-3.2 26.9-21.2 46.7-47.9 52.3-5.1 1.1-10.1 1.9-15.2 2.9h-3c-2-.3-4-.6-6-.8h-3c-1.7.3-3.4.6-5 .9h-12c-.9-.3-1.8-.9-2.7-1-10.9-.1-21.8-.1-32.7 0-.9 0-1.8.6-2.7 1h-12c-2.5-.1-5.1-.1-7.8-.1zm131-112.4h.8c0-11 .3-22-.1-33-.3-8.5-.5-17.1-2.1-25.3-4-20.7-18.7-32.6-42-33-32-.7-63.9-.5-95.9 0-14 .2-26.8 4.7-35.5 17-5.5 7.9-7.9 17-7.9 26.3-.3 32-.7 63.9 0 95.9.6 26.6 16.8 42.9 42.3 43.3 32.6.5 65.3.5 97.9 0 25.1-.4 41.7-17.1 42.3-42.3.5-16.2.2-32.6.2-48.9z"/><path class="st0" d="M148.9 7.4c-1 .3-2 1-3 1-16.3.1-32.6.1-48.9 0-1 0-2-.6-3-1h54.9zm-140 85c.3 1 1 2 1 3 .1 16.3.1 32.6 0 48.9 0 1-.6 2-1 3V92.4zm225 48c-.3-.4-.8-.8-.8-1.2v-37.6c0-.4.5-.8.8-1.2v40zm-132 92c.9-.3 1.8-.9 2.7-1 10.9-.1 21.8-.1 32.7 0 .9 0 1.8.6 2.7 1h-38.1zm132-144v-8 8zm-152 144h8-8zm152-68c-.3-2-.6-4-.8-6h.8v6zM160 231.6c2 .3 4 .6 6 .8h-6c-.1-.3-.1-.6 0-.8zm73-76.2c.3-1.7.6-3.4.9-5v5h-.9zm-81.1 77c1.7-.3 3.4-.6 5-.9v.9h-5zm81.1-77h.9v3h-.8c0-1 0-2-.1-3zm-76.1 77v-.9h3v.8c-1 .1-2 .1-3 .1zm-56.6-35v-76.9H85V94.1h15.8c0-8.4-.3-16 .1-23.6.6-14.4 9.8-24 24-25.1 9.8-.8 19.6-.9 29.7-1.4v27.5h-16.1c-4.5-.1-6.8 2-6.7 6.6.1 5.1 0 10.2 0 16.1H155c-.8 8.9-1.5 16.9-2.2 25.7h-20.9c-.2 2.7-.5 4.6-.5 6.5 0 21.8-.1 43.6.1 65.5 0 4.3-1 5.9-5.5 5.7-8.3-.5-16.6-.2-25.7-.2z"/></svg>