<svg version="1.1" id="圖層_1" xmlns="http://www.w3.org/2000/svg" x="0" y="0" viewBox="0 0 231.3 231.3" xml:space="preserve"><style>.st0{fill:#fffffb}</style><path class="st0" d="M171.3 227.7h-113c-1.6-.6-3.1-1.4-4.8-1.9-25.3-6.9-41.5-23-48.3-48.3-.4-1.6-1.3-3.2-1.9-4.8v-115c.6-1.4 1.4-2.8 1.8-4.3 5.8-23.1 19.9-38.7 42.3-47 3.9-1.4 8-2.5 11.9-3.8h112c.3.3.6.8 1 .9 26.1 4.2 43.3 19.1 52.5 43.6 1.4 3.7 2.4 7.6 3.6 11.5v114c-.6 1.4-1.4 2.8-1.8 4.3-6.4 24.9-22.1 40.8-46.5 48.4-2.9.9-5.9 1.6-8.8 2.4zm39.9-112.2v-46c-.1-28.7-21-49.7-49.7-49.7H70.1c-28.4 0-49.5 21-49.6 49.3-.1 30.6-.1 61.3 0 91.9 0 28.4 21.1 49.4 49.5 49.5h91.9c28.1 0 49.2-21.1 49.3-49.1.1-15.3 0-30.6 0-45.9z"/><path class="st0" d="M176.3 115.1c0 33.4-27.2 60.6-60.6 60.6-33.3 0-60.5-27.3-60.4-60.7 0-33.3 27.3-60.3 60.8-60.3 33.1 0 60.2 27.3 60.2 60.4zm-17.1.2c0-23.9-19.4-43.5-43.3-43.5-24 0-43.5 19.4-43.5 43.3s19.4 43.5 43.3 43.5c24 0 43.5-19.4 43.5-43.3zm34.3-64.7c-.2 7.3-5.8 12.6-13.3 12.4-7.1-.2-12.4-5.7-12.3-12.9.1-7.3 5.7-12.7 13.1-12.6 7.3.1 12.7 5.8 12.5 13.1z"/></svg>